<?xml version="1.0" encoding="utf-8"?>
<!-- Generator: Adobe Illustrator 19.2.1, SVG Export Plug-In . SVG Version: 6.00 Build 0)  -->
<svg version="1.1" id="レイヤー_1" xmlns="http://www.w3.org/2000/svg" xmlns:xlink="http://www.w3.org/1999/xlink" x="0px"
	 y="0px" viewBox="0 0 320 320" style="enable-background:new 0 0 320 320;" xml:space="preserve">
<style type="text/css">
	.st0{fill:#666666;}
	.st1{fill:#FFFFFF;}
	.st2{fill-rule:evenodd;clip-rule:evenodd;fill:#666666;}
	.st3{fill-rule:evenodd;clip-rule:evenodd;}
	.st4{fill-rule:evenodd;clip-rule:evenodd;fill:#FFFFFF;}
	.st5{fill:none;stroke:#000000;stroke-width:10;stroke-linecap:round;stroke-miterlimit:10;}
</style>
<path class="st0" d="M107.559,59.36C94.956,46.757,64.38,36.615,51.777,49.218S49.316,92.397,61.919,105L107.559,59.36z"/>
<path class="st1" d="M93.906,73.013c-6.592-6.592-22.586-11.897-29.178-5.305s-1.287,22.586,5.305,29.178L93.906,73.013z"/>
<path class="st0" d="M212.441,59.36c12.603-12.603,43.179-22.745,55.782-10.142s2.461,43.179-10.142,55.782L212.441,59.36z"/>
<path class="st1" d="M226.094,73.013c6.592-6.592,22.586-11.897,29.178-5.305c6.592,6.592,1.287,22.586-5.305,29.178L226.094,73.013
	z"/>
<path class="st2" d="M36,179c0-68.483,55.517-134,124-134s124,65.517,124,134s-55.517,104-124,104S36,247.483,36,179z"/>
<circle class="st3" cx="110" cy="167" r="18"/>
<circle class="st3" cx="210" cy="167" r="18"/>
<g>
	<path class="st1" d="M160,283c41.205,0,77.708-12.864,100.257-38.023c-1.636-3.51-3.848-6.743-6.67-9.564
		c-11.16-11.16-28.688-12.94-44.807-6.146C206.473,208.927,185.519,193,160,193s-46.473,15.927-48.78,36.267
		c-16.119-6.794-33.647-5.014-44.807,6.146c-2.821,2.821-5.033,6.054-6.67,9.564C82.292,270.136,118.795,283,160,283z"/>
</g>
<path class="st3" d="M141,203.32c0-7.356,8.507-10.32,19-10.32s19,2.964,19,10.32c0,7.356-8.507,15.68-19,15.68
	S141,210.676,141,203.32z"/>
<ellipse class="st4" cx="138" cy="127" rx="12" ry="15"/>
<ellipse class="st4" cx="182" cy="127" rx="12" ry="15"/>
<path class="st5" d="M147,244c7.18,0,13-5.82,13-13v-18"/>
<path class="st5" d="M173,244c-7.18,0-13-5.82-13-13v-18"/>
<line class="st5" x1="94" y1="146" x2="126" y2="146"/>
<line class="st5" x1="226" y1="146" x2="194" y2="146"/>
</svg>
